<svg width="24" height="24" viewBox="0 0 24 24" fill="none" xmlns="http://www.w3.org/2000/svg">
<g clip-path="url(#clip0_103_381)">
<path d="M6.9375 0.281151C6.825 0.431152 6.675 0.881151 6.61875 1.3124L6.50625 2.0624H4.48125C3.31875 2.0624 2.25 2.15615 1.96875 2.2874C0.9375 2.75615 0.9375 2.7374 0.9375 13.0312C0.9375 23.1749 0.95625 23.3249 1.85625 23.8124C2.3625 24.0749 21.6375 24.0749 22.1438 23.8124C23.0438 23.3249 23.0625 23.1749 23.0625 13.0499C23.0625 6.1124 23.0063 3.4499 22.8375 3.09365C22.4625 2.26865 21.8063 2.0624 19.5375 2.0624H17.4938L17.3813 1.3124C17.25 0.281151 16.9688 -9.91821e-05 16.1063 -9.91821e-05C15.2625 -9.91821e-05 14.8125 0.506151 14.8125 1.44365V2.0624H12H9.1875V1.44365C9.1875 0.506151 8.7375 -9.91821e-05 7.89375 -9.91821e-05C7.48125 -9.91821e-05 7.06875 0.112402 6.9375 0.281151ZM8.15625 2.45615C8.15625 3.73115 8.1 4.03115 7.875 4.03115C7.65 4.03115 7.575 3.73115 7.5375 2.64365C7.48125 1.10615 7.575 0.674902 7.93125 0.806152C8.08125 0.843651 8.15625 1.3499 8.15625 2.45615ZM16.4063 2.45615C16.4063 3.73115 16.35 4.03115 16.125 4.03115C15.9 4.03115 15.825 3.73115 15.7875 2.64365C15.7313 1.10615 15.825 0.674902 16.1813 0.806152C16.3313 0.843651 16.4063 1.3499 16.4063 2.45615ZM6.5625 3.4499C6.5625 4.70615 7.7625 5.3999 8.68125 4.6874C9.075 4.36865 9.1875 4.1249 9.1875 3.54365V2.8124H12H14.8125V3.54365C14.8125 4.1249 14.925 4.36865 15.3188 4.6874C16.2375 5.41865 17.4375 4.70615 17.4375 3.43115V2.7749L19.5 2.8499C22.1438 2.9249 22.1813 2.94365 22.275 5.34365L22.35 7.1249H12.0188H1.6875L1.70625 5.6624C1.74375 3.01865 1.95 2.8124 4.74375 2.8124H6.5625V3.4499ZM22.3125 12.8437V17.7937L21.675 17.9249C21.2438 17.9999 20.8125 17.9437 20.4188 17.7374C19.4813 17.2687 19.2563 17.3624 18.675 18.4312C17.9438 19.7437 15.525 22.0874 14.25 22.7437L13.2188 23.2499H7.93125C3.01875 23.2499 2.64375 23.2312 2.23125 22.8937L1.78125 22.5374L1.725 15.2062L1.66875 7.8749H12H22.3125V12.8437ZM21.0188 18.7499H21.6375L20.7188 19.7062C19.65 20.7749 18.225 21.7687 16.9688 22.3124L16.0875 22.6874L17.1375 21.7312C17.7188 21.2062 18.5438 20.2312 18.975 19.5749C19.6313 18.5999 19.8 18.4312 20.0813 18.5812C20.2688 18.6749 20.6813 18.7499 21.0188 18.7499ZM22.2188 22.0687C22.0312 23.0624 21.5625 23.2499 19.2188 23.2499L17.1562 23.2312L18.45 22.5374C19.2 22.1437 20.2688 21.3374 20.9813 20.6249L22.2188 19.4062L22.275 20.4374C22.3125 20.9999 22.2938 21.7312 22.2188 22.0687Z" fill="#03045E"/>
<path d="M3.41251 9.41249C3.28126 9.54374 3.18751 10.2375 3.18751 11.175C3.18751 12.9562 3.16876 12.9375 4.96876 12.9375C6.76876 12.9375 6.75001 12.9562 6.75001 11.175C6.75001 10.2375 6.65626 9.54374 6.52501 9.41249C6.22501 9.11249 3.71251 9.11249 3.41251 9.41249ZM6.00001 11.1562V12.1875H4.96876H3.93751V11.1562V10.125H4.96876H6.00001V11.1562Z" fill="#00B5D8"/>
<path d="M8.10001 9.41249C7.96876 9.54374 7.87501 10.2375 7.87501 11.175C7.87501 12.9562 7.85626 12.9375 9.65626 12.9375C11.4563 12.9375 11.4375 12.9562 11.4375 11.175C11.4375 10.2375 11.3438 9.54374 11.2125 9.41249C10.9125 9.11249 8.40001 9.11249 8.10001 9.41249ZM10.6875 11.1562V12.1875H9.65626H8.62501V11.1562V10.125H9.65626H10.6875V11.1562Z" fill="#00B5D8"/>
<path d="M12.7875 9.41249C12.6563 9.54374 12.5625 10.2375 12.5625 11.175C12.5625 12.9562 12.5438 12.9375 14.3438 12.9375C16.1438 12.9375 16.125 12.9562 16.125 11.175C16.125 10.2375 16.0313 9.54374 15.9 9.41249C15.6 9.11249 13.0875 9.11249 12.7875 9.41249ZM15.375 11.1562V12.1875H14.3438H13.3125V11.1562V10.125H14.3438H15.375V11.1562Z" fill="#00B5D8"/>
<path d="M17.475 9.41249C17.3438 9.54374 17.25 10.2375 17.25 11.175C17.25 12.9562 17.2313 12.9375 19.0313 12.9375C20.8313 12.9375 20.8125 12.9562 20.8125 11.175C20.8125 10.2375 20.7188 9.54374 20.5875 9.41249C20.2875 9.11249 17.775 9.11249 17.475 9.41249ZM20.0625 11.1562V12.1875H19.0313H18V11.1562V10.125H19.0313H20.0625V11.1562Z" fill="#00B5D8"/>
<path d="M3.41251 14.1C3.28126 14.2312 3.18751 14.925 3.18751 15.8625C3.18751 17.6437 3.16876 17.625 4.96876 17.625C6.76876 17.625 6.75001 17.6437 6.75001 15.8625C6.75001 14.925 6.65626 14.2312 6.52501 14.1C6.22501 13.8 3.71251 13.8 3.41251 14.1ZM6.00001 15.75V16.6875H4.96876H3.93751V15.75V14.8125H4.96876H6.00001V15.75Z" fill="#00B5D8"/>
<path d="M8.10001 14.1C7.96876 14.2312 7.87501 14.925 7.87501 15.8625C7.87501 17.6437 7.85626 17.625 9.65626 17.625C11.4563 17.625 11.4375 17.6437 11.4375 15.8625C11.4375 14.925 11.3438 14.2312 11.2125 14.1C11.0813 13.9687 10.4438 13.875 9.65626 13.875C8.86876 13.875 8.23126 13.9687 8.10001 14.1ZM10.6875 15.75V16.6875H9.65626H8.62501V15.75V14.8125H9.65626H10.6875V15.75Z" fill="#00B5D8"/>
<path d="M12.7875 14.1C12.6563 14.2312 12.5625 14.925 12.5625 15.8625C12.5625 17.6437 12.5438 17.625 14.3438 17.625C16.1438 17.625 16.125 17.6437 16.125 15.8625C16.125 14.925 16.0313 14.2312 15.9 14.1C15.7688 13.9687 15.1313 13.875 14.3438 13.875C13.5563 13.875 12.9188 13.9687 12.7875 14.1ZM15.375 15.75V16.6875H14.3438H13.3125V15.75V14.8125H14.3438H15.375V15.75Z" fill="#00B5D8"/>
<path d="M3.4125 18.7875C3.1125 19.0875 3.1125 21.7875 3.4125 22.0875C3.6375 22.3125 5.925 22.4063 6.45 22.2C6.69375 22.1063 6.75 21.7688 6.75 20.4375C6.75 19.1063 6.69375 18.7688 6.45 18.675C5.925 18.4688 3.6375 18.5625 3.4125 18.7875ZM6 20.4375V21.375H4.96875H3.9375V20.4375V19.5H4.96875H6V20.4375Z" fill="#00B5D8"/>
<path d="M8.10001 18.7875C7.96876 18.9187 7.87501 19.6125 7.87501 20.55C7.87501 22.3312 7.85626 22.3125 9.65626 22.3125C11.4563 22.3125 11.4375 22.3312 11.4375 20.55C11.4375 19.6125 11.3438 18.9187 11.2125 18.7875C10.9125 18.4875 8.40001 18.4875 8.10001 18.7875ZM10.6875 20.4375V21.375H9.65626H8.62501V20.4375V19.5H9.65626H10.6875V20.4375Z" fill="#00B5D8"/>
</g>
<defs>
<clipPath id="clip0_103_381">
<rect width="24" height="24" fill="white"/>
</clipPath>
</defs>
</svg>
