<svg width="48" height="41" viewBox="0 0 48 41" fill="none" xmlns="http://www.w3.org/2000/svg">
<path fill-rule="evenodd" clip-rule="evenodd" d="M20.518 0.294885C26.6801 0.40879 33.0089 0.163812 37.6481 4.1811C43.5298 9.27429 49.3406 16.286 47.7265 23.8557C46.0977 31.4946 37.7205 35.1144 30.4222 38.0699C23.8237 40.7421 16.3241 42.5622 10.12 39.0853C4.24754 35.7942 3.07144 28.5017 1.68238 21.9636C0.33702 15.6312 -1.69674 8.43721 2.5666 3.53262C6.74094 -1.26957 14.12 0.17662 20.518 0.294885Z" fill="#DDF9FF"/>
<g clip-path="url(#clip0_103_313)">
<path d="M13.1813 9.375C11.9813 10.1062 12 9.95625 12 19.5375C12 27.825 12.0188 28.2375 12.375 28.8187C13.05 29.9437 13.35 30 18.5438 30C23.0625 30 23.2313 29.9812 23.3438 29.625C23.4 29.4187 23.4 29.0812 23.3438 28.875C23.2313 28.5187 23.0625 28.5 19.1438 28.5C14.5688 28.5 14.0063 28.4062 13.7063 27.525C13.425 26.7187 13.425 12.2625 13.7063 11.475C14.025 10.5375 14.5688 10.4625 20.925 10.5375C26.175 10.5938 26.6063 10.6125 26.9813 10.95C27.3563 11.2875 27.375 11.4937 27.375 14.4375C27.375 17.7 27.45 18 28.2188 18C28.9875 18 29.0625 17.7187 29.0625 14.3062C29.0625 10.725 28.9875 10.3687 27.9375 9.4875L27.3375 9H20.5688C14.175 9 13.7438 9.01875 13.1813 9.375Z" fill="#03045E"/>
<path d="M15.1314 13.05C14.9252 13.275 14.9814 14.1562 15.2252 14.4C15.3752 14.55 16.2752 14.625 18.0189 14.625C20.8314 14.625 21.0752 14.5312 20.9627 13.5562L20.9064 13.0312L18.0752 12.975C16.5377 12.9562 15.2064 12.9937 15.1314 13.05Z" fill="#03045E"/>
<path d="M15.2062 17.1375C15.075 17.2875 15 17.6437 15.0375 17.9437L15.0937 18.4687L20.325 18.525C25.8187 18.5625 26.0625 18.5437 26.0625 17.7375C26.0625 16.8937 25.8937 16.875 20.5125 16.875C16.3125 16.875 15.375 16.9312 15.2062 17.1375Z" fill="#03045E"/>
<path d="M27.1686 19.7625C23.6061 21 23.9623 20.475 24.0373 24.2437C24.0936 27.3562 24.1123 27.5062 24.6373 28.5187C25.5748 30.375 28.7061 33 29.9998 33C31.2936 33 34.4248 30.375 35.3623 28.5187C35.8873 27.5062 35.9061 27.3562 35.9623 24.2625C36.0186 21.7875 35.9623 21.0187 35.7748 20.8687C35.4186 20.5875 30.3561 18.9375 29.9061 18.9562C29.6998 18.9562 28.4623 19.3312 27.1686 19.7625ZM32.4186 21.4688L34.5561 22.1812L34.4436 24.375C34.3686 26.0062 34.2561 26.7937 33.9748 27.4312C33.4873 28.5 32.3248 29.7937 31.0123 30.6562L29.9998 31.3312L28.9873 30.6562C27.6748 29.7937 26.5123 28.5 26.0248 27.4312C25.7436 26.7937 25.6311 26.0062 25.5561 24.3937L25.4436 22.2L27.6748 21.4312C28.9123 21 29.9998 20.6812 30.0936 20.7C30.2061 20.7375 31.2373 21.075 32.4186 21.4688Z" fill="#00B5D8"/>
<path d="M32.2123 23.1C32.0623 23.2312 31.4436 24 30.8436 24.7875C30.2436 25.5937 29.7186 26.25 29.6436 26.25C29.5686 26.25 29.2123 25.95 28.8748 25.5937C28.3686 25.0687 28.1061 24.9375 27.6561 24.975C27.1873 25.0125 27.0748 25.125 27.0373 25.575C26.9811 26.025 27.1686 26.3062 28.1436 27.3C29.8498 29.025 29.9248 29.0062 31.9311 26.3062C32.8311 25.1062 33.5623 23.9437 33.5623 23.7187C33.5623 22.9687 32.8123 22.6312 32.2123 23.1Z" fill="#00B5D8"/>
<path d="M15.0751 21.2625C15.0188 21.4125 15.0001 21.7312 15.0376 21.975L15.0938 22.4062H18.4501C21.4313 22.4062 21.8251 22.3687 22.0126 22.0687C22.1626 21.8438 22.1626 21.6562 22.0126 21.4125C21.8251 21.1312 21.4126 21.0938 18.4876 21.0375C15.7313 21 15.1688 21.0375 15.0751 21.2625Z" fill="#03045E"/>
</g>
<defs>
<clipPath id="clip0_103_313">
<rect width="24" height="24" fill="white" transform="translate(12 9)"/>
</clipPath>
</defs>
</svg>
