<svg width="48" height="41" viewBox="0 0 48 41" fill="none" xmlns="http://www.w3.org/2000/svg">
<path fill-rule="evenodd" clip-rule="evenodd" d="M20.518 0.294885C26.6801 0.40879 33.0089 0.163812 37.6481 4.1811C43.5298 9.27429 49.3406 16.286 47.7265 23.8557C46.0977 31.4946 37.7205 35.1144 30.4222 38.0699C23.8237 40.7421 16.3241 42.5622 10.12 39.0853C4.24754 35.7942 3.07144 28.5017 1.68238 21.9636C0.33702 15.6312 -1.69674 8.43721 2.5666 3.53262C6.74094 -1.26957 14.12 0.17662 20.518 0.294885Z" fill="#DDF9FF"/>
<path d="M23.1938 10.8374C22.7063 11.3249 22.3125 11.9062 22.3125 12.1124C22.3125 12.5437 23.9813 14.2499 24.4125 14.2499C24.5625 14.2499 24.8063 14.1187 24.9375 13.9687C25.1438 13.7249 25.1063 13.5749 24.7688 13.1062L24.3563 12.5624L25.1625 12.6749C29.9438 13.4062 33.2063 18.0749 32.175 22.7062C31.8 24.3562 31.0125 25.8187 29.8875 26.9062C29.0438 27.7312 28.8375 28.3687 29.3625 28.5749C29.775 28.7437 30.225 28.4437 31.1813 27.3749C33.75 24.5249 34.2938 20.2687 32.5688 16.7249C31.2375 13.9687 28.5 11.9812 25.425 11.5312C24.6 11.3999 24.5813 11.3812 24.8625 10.9687C25.0125 10.7437 25.0875 10.4062 25.0125 10.2374C24.8063 9.6937 24.1125 9.9187 23.1938 10.8374Z" fill="#03045E"/>
<path d="M17.0627 14.4C12.9752 18.6 13.7627 25.7062 18.6564 28.9687C19.7814 29.7 21.2627 30.2812 22.5752 30.4687C23.4002 30.6 23.4189 30.6187 23.1377 31.0312C22.8002 31.5562 22.9689 32.0625 23.5127 32.0625C24.0189 32.0625 25.6877 30.4125 25.6877 29.8875C25.6877 29.4562 24.0189 27.75 23.5877 27.75C23.4377 27.75 23.1939 27.8812 23.0627 28.0312C22.8564 28.275 22.8939 28.425 23.2314 28.8937L23.6627 29.475L23.0439 29.3438C21.5627 29.0625 20.4752 28.6687 19.6314 28.125C17.5502 26.8125 16.1814 24.75 15.7314 22.3125C15.3002 19.8187 16.1627 17.0625 18.0189 15.1687C18.9564 14.1937 19.1627 13.6312 18.6377 13.425C18.1689 13.2562 18.1689 13.2562 17.0627 14.4Z" fill="#03045E"/>
<path d="M22.1813 15.7126C17.4751 17.4001 17.0813 23.8126 21.5251 26.0063C23.6813 27.0751 26.6251 26.5313 28.1438 24.8063C29.1376 23.6626 29.5313 22.5938 29.5126 21.0001C29.5126 19.4063 29.1188 18.3188 28.1438 17.1938C26.8126 15.6938 24.1313 15.0188 22.1813 15.7126ZM25.6501 16.9876C28.5188 18.1688 29.2313 21.9938 26.9813 24.1313C24.2438 26.7188 19.7063 24.8063 19.6876 21.0376C19.6876 18.6001 21.5438 16.7063 23.9626 16.6876C24.5063 16.6876 25.2563 16.8188 25.6501 16.9876Z" fill="#00B5D8"/>
<path d="M23.5688 17.55C23.4938 17.625 23.4375 17.8125 23.4375 17.9437C23.4375 18.0937 23.1375 18.4875 22.7813 18.825C21.6938 19.8562 22.0125 20.7937 23.7188 21.5437C24.1875 21.75 24.5625 21.9937 24.5625 22.0875C24.5625 22.425 23.9625 22.5187 23.3438 22.2937C22.0875 21.8437 21.6188 22.725 22.7813 23.3437C23.1375 23.55 23.4375 23.8687 23.475 24.0937C23.55 24.6 24.4313 24.6187 24.525 24.1125C24.5625 23.9062 24.8813 23.475 25.2375 23.1562C26.3063 22.1437 26.025 21.2062 24.4313 20.5125C23.3438 20.025 23.175 19.5562 24.1125 19.65C25.725 19.8 25.7813 19.8 25.8375 19.3687C25.8938 19.0312 25.7438 18.8625 25.2375 18.6375C24.8438 18.45 24.5625 18.15 24.525 17.925C24.4688 17.5312 23.8313 17.2875 23.5688 17.55Z" fill="#00B5D8"/>
</svg>
