<svg width="24" height="24" viewBox="0 0 24 24" fill="none" xmlns="http://www.w3.org/2000/svg">
<g clip-path="url(#clip0_103_347)">
<path d="M9.84375 1.48125C9.35625 1.70625 7.44375 3.4875 4.55625 6.4125L0 10.9875V11.8125C0.01875 12.9938 0.65625 13.6875 1.7625 13.6875H2.25V17.8125V21.9375H1.125C0.05625 21.9375 0 21.9563 0 22.4063V22.875L8.30625 22.8375C16.4438 22.7813 16.5938 22.7813 16.5938 22.4063C16.5938 22.05 16.4438 22.0313 14.6813 21.975L12.75 21.9188V18.5438C12.75 16.575 12.675 15.0188 12.5625 14.7938C12.375 14.475 12.1313 14.4375 9.76875 14.4375C7.5 14.4375 7.14375 14.475 6.88125 14.775C6.6 15.075 6.5625 15.6188 6.5625 18.525V21.9375H4.875H3.1875V17.475V13.0313L7.21875 9L11.25 4.96875L12.7313 6.45C13.7625 7.4625 14.3063 7.89375 14.5125 7.81875C14.6813 7.74375 14.8125 7.59375 14.8125 7.4625C14.8125 7.3125 14.025 6.43125 13.05 5.45625C11.55 3.95625 11.25 3.73125 10.95 3.9C10.7438 4.0125 8.6625 6.05625 6.28125 8.41875C3.91875 10.8 1.8375 12.75 1.6875 12.75C1.275 12.75 0.9375 12.375 0.9375 11.9063C0.9375 11.4938 9.65625 2.6625 10.4813 2.25C11.4375 1.7625 12.1313 2.1375 14.475 4.44375C15.9938 5.94375 16.7625 6.58125 16.95 6.50625C17.1188 6.43125 17.25 6.28125 17.25 6.15C17.25 5.775 12.9188 1.55625 12.3188 1.33125C11.5312 1.03125 10.6875 1.0875 9.84375 1.48125ZM11.775 18.6188L11.8125 21.9375H9.65625H7.5V18.675C7.5 16.2375 7.55625 15.375 7.74375 15.3C7.85625 15.2625 8.8125 15.225 9.84375 15.2438L11.7188 15.2813L11.775 18.6188Z" fill="#03045E"/>
<path d="M7.6875 18.6562C7.6875 19.2562 7.74375 19.3312 8.11875 19.2749C8.4375 19.2374 8.53125 19.0874 8.53125 18.6562C8.53125 18.2249 8.4375 18.0749 8.11875 18.0374C7.74375 17.9812 7.6875 18.0562 7.6875 18.6562Z" fill="#03045E"/>
<path d="M16.2002 7.38743C13.444 8.66243 12.3752 11.5312 13.5002 14.6249C14.0065 16.0687 15.244 18.5812 16.5377 20.8499C17.6252 22.7437 18.1877 23.1187 19.2002 22.6499C19.6877 22.4062 20.0627 21.8812 21.169 19.8187C24.5065 13.5749 24.8252 11.0624 22.6127 8.66243C21.5065 7.44368 20.3065 6.93743 18.5627 6.93743C17.4752 6.93743 16.9315 7.04993 16.2002 7.38743ZM20.3065 8.17493C22.8752 9.46868 23.6627 11.6999 22.594 14.5499C21.8815 16.4249 19.1252 21.7124 18.769 21.8437C18.5815 21.9187 18.319 21.7687 18.0377 21.4312C17.3252 20.5312 14.5127 14.7937 14.1752 13.4812C13.8565 12.3374 13.8565 12.1687 14.1377 11.2312C14.494 9.99368 15.4502 8.81243 16.5377 8.26868C17.5315 7.78118 19.4252 7.72493 20.3065 8.17493Z" fill="#00B5D8"/>
<path d="M16.9125 9.20614C14.5687 10.3874 14.3625 13.8936 16.5375 15.3186C17.5875 16.0311 19.0125 16.1249 20.1562 15.5624C22.5562 14.3999 22.8 10.8936 20.5875 9.41239C19.5375 8.73739 18.0187 8.64364 16.9125 9.20614ZM19.8937 10.1811C21.5812 11.3061 21.5437 13.5749 19.8187 14.6249C18.6375 15.3561 17.0812 14.9061 16.3125 13.6499C14.9437 11.4186 17.7187 8.71864 19.8937 10.1811Z" fill="#00B5D8"/>
</g>
<defs>
<clipPath id="clip0_103_347">
<rect width="24" height="24" fill="white"/>
</clipPath>
</defs>
</svg>
