<svg width="48" height="41" viewBox="0 0 48 41" fill="none" xmlns="http://www.w3.org/2000/svg">
<path fill-rule="evenodd" clip-rule="evenodd" d="M20.518 0.294885C26.6801 0.40879 33.0089 0.163812 37.6481 4.1811C43.5298 9.27429 49.3406 16.286 47.7265 23.8557C46.0977 31.4946 37.7205 35.1144 30.4222 38.0699C23.8237 40.7421 16.3241 42.5622 10.12 39.0853C4.24754 35.7942 3.07144 28.5017 1.68238 21.9636C0.33702 15.6312 -1.69674 8.43721 2.5666 3.53262C6.74094 -1.26957 14.12 0.17662 20.518 0.294885Z" fill="#DDF9FF"/>
<path d="M21.15 9.35625C17.1938 10.65 14.8125 13.9875 14.8125 18.2625C14.8125 22.6687 16.9313 26.7562 21.4688 31.1062C23.0438 32.5875 23.5875 33 24 33C24.4125 33 24.9563 32.5875 26.5312 31.1062C29.9438 27.825 32.0063 24.675 32.8313 21.3937C33.3563 19.3125 33.2812 16.3875 32.6438 14.775C31.7625 12.525 29.6625 10.425 27.4125 9.54375C25.8938 8.94375 22.6688 8.85 21.15 9.35625ZM25.8 10.7625C27.2063 11.1375 28.575 11.9437 29.5125 12.9375C32.6063 16.2375 32.3063 21.0938 28.7063 26.2125C27.6938 27.6375 24.3563 31.125 24 31.125C23.8875 31.125 22.9688 30.3 21.975 29.2875C18.975 26.2312 17.2125 23.325 16.6125 20.4C16.2375 18.6 16.2375 17.8125 16.5938 16.4062C17.6813 12.225 21.825 9.69375 25.8 10.7625Z" fill="#03045E"/>
<path d="M19.8751 15.975C18.8251 16.5187 18.3001 17.3812 18.3188 18.5812C18.3376 20.25 19.4813 21.375 21.1876 21.375C22.0876 21.375 22.5563 21.1687 23.4001 20.3812L24.0001 19.8L24.6188 20.3812C25.4438 21.1687 25.9126 21.375 26.8126 21.375C28.5188 21.375 29.7001 20.2125 29.7001 18.5625C29.7001 17.3625 29.1751 16.5 28.0876 15.975C26.8688 15.3562 25.9126 15.525 24.8063 16.5562L23.9813 17.3062L23.2876 16.6125C22.6313 15.9937 21.7126 15.5625 21.0001 15.5625C20.8313 15.5625 20.3251 15.75 19.8751 15.975ZM22.2188 17.8312L22.8751 18.4125L22.4813 18.9C22.0688 19.4437 21.4313 19.8562 21.0376 19.875C20.6438 19.875 19.8751 18.9937 19.8751 18.5437C19.8751 17.9812 20.5876 17.25 21.1126 17.25C21.3563 17.25 21.8438 17.5125 22.2188 17.8312ZM27.6938 17.6625C28.1626 18.0937 28.2376 18.5625 27.9376 19.125C27.4313 20.0625 26.3813 19.9875 25.5563 18.9375L25.1251 18.4125L25.7813 17.8312C26.5688 17.1375 27.0938 17.1 27.6938 17.6625Z" fill="#00B5D8"/>
</svg>
