<svg width="24" height="24" viewBox="0 0 24 24" fill="none" xmlns="http://www.w3.org/2000/svg">
<path d="M6.58125 5.75625L1.70625 10.0312V15.8437C1.6875 20.8312 1.725 21.7312 1.9875 22.0875L2.26875 22.5H12H21.7313L22.0125 22.0875C22.275 21.7312 22.3125 20.8312 22.2938 15.8437V10.0312L17.4188 5.75625C13.4813 2.325 12.4313 1.5 12 1.5C11.5688 1.5 10.5188 2.325 6.58125 5.75625ZM16.6875 6.4125C20.7938 10.0125 20.9813 10.2187 20.6813 10.5375C20.1 11.175 12.15 18.0938 12 18.0938C11.85 18.0938 3.9 11.175 3.31875 10.5375C3.01875 10.2187 3.20625 10.0125 7.44375 6.3C10.05 4.0125 11.9625 2.45625 12.1125 2.5125C12.2625 2.56875 14.3063 4.3125 16.6875 6.4125ZM11.3813 18.8812C11.625 19.05 12 19.125 12.225 19.05C12.4688 18.9937 14.625 17.2125 17.025 15.0937L21.375 11.25V16.1625V21.0938L19.3125 19.0312C17.3625 17.0812 17.2313 16.9875 16.9313 17.3062C16.6125 17.6062 16.7063 17.7375 18.6563 19.6875L20.7188 21.75H12H3.28125L5.34375 19.6875C7.29375 17.7375 7.3875 17.6062 7.06875 17.3062C6.76875 16.9875 6.6375 17.0812 4.6875 19.0312L2.625 21.0938V16.1625V11.25L6.80625 14.925C9.09375 16.95 11.1563 18.7312 11.3813 18.8812Z" fill="#03045E"/>
<path d="M10.5375 6.16883C8.71875 6.80633 7.6875 8.26883 7.6875 10.2376C7.70625 13.2751 10.3875 15.2626 13.3688 14.4188C14.1375 14.2126 14.1375 14.1938 13.875 13.6876C13.7063 13.3876 13.5938 13.3501 13.2 13.5001C11.925 13.9876 10.3875 13.5751 9.43125 12.5063C7.875 10.7251 8.4375 8.17508 10.5938 7.12508C12.7125 6.09383 15.0938 7.51883 15.4688 10.0313C15.6188 10.9876 15.2063 11.6438 14.6813 11.3251C14.4375 11.1751 14.325 10.8001 14.25 10.0126C14.1188 8.70008 13.8563 8.15633 13.125 7.78133C11.9813 7.20008 10.5563 7.59383 10.0125 8.66258C9.7875 9.09383 9.73125 9.60008 9.7875 10.5563C9.84375 11.7376 9.91875 11.9063 10.4625 12.3938C11.2688 13.1251 12.6375 13.1626 13.4438 12.4876C13.8563 12.1313 14.0625 12.0751 14.325 12.2251C14.7188 12.4501 15.525 12.2626 15.9938 11.8688C16.2375 11.6438 16.3125 11.2688 16.3125 10.3501C16.3125 8.21258 15.225 6.67508 13.275 6.09383C12.0563 5.73758 11.7563 5.73758 10.5375 6.16883ZM12.9375 8.81258C13.4813 9.35633 13.4813 11.2313 12.9375 11.7188C12.45 12.1501 11.55 12.1501 11.0625 11.7188C10.7625 11.4563 10.6875 11.1376 10.6875 10.2751C10.6875 9.00008 11.0813 8.43758 12 8.43758C12.3188 8.43758 12.7313 8.60633 12.9375 8.81258Z" fill="#00B5D8"/>
</svg>
