<svg width="48" height="41" viewBox="0 0 48 41" fill="none" xmlns="http://www.w3.org/2000/svg">
<path fill-rule="evenodd" clip-rule="evenodd" d="M20.518 0.294885C26.6801 0.40879 33.0089 0.163812 37.6481 4.1811C43.5298 9.27429 49.3406 16.286 47.7265 23.8557C46.0977 31.4946 37.7205 35.1144 30.4222 38.0699C23.8237 40.7421 16.3241 42.5622 10.12 39.0853C4.24754 35.7942 3.07144 28.5017 1.68238 21.9636C0.33702 15.6312 -1.69674 8.43721 2.5666 3.53262C6.74094 -1.26957 14.12 0.17662 20.518 0.294885Z" fill="#DDF9FF"/>
<path d="M19.1377 10.2813C19.0065 10.6 19.569 13.825 19.8502 14.35C20.0565 14.7625 20.7127 14.8 20.8627 14.4063C20.919 14.2563 20.8815 13.75 20.7877 13.2625L20.6002 12.3813L25.8877 17.6688C29.7315 21.5125 31.2877 22.9563 31.5502 22.9C32.5065 22.7313 32.0565 22.15 26.7315 16.825C23.8065 13.9 21.5002 11.5 21.594 11.5C21.7065 11.5 22.1002 11.5938 22.5127 11.6688C23.4315 11.8938 23.7502 11.7625 23.7502 11.2C23.7502 10.7125 23.8252 10.75 21.5377 10.2813C19.794 9.92503 19.269 9.92503 19.1377 10.2813Z" fill="#03045E"/>
<path d="M14.1313 15.1937C14.0563 15.25 14 15.4375 14 15.6062C14 15.775 16.3813 18.2875 19.2875 21.1937C22.2125 24.1187 24.5 26.5 24.4062 26.5C24.2938 26.5 23.9 26.4062 23.4875 26.3312C22.5688 26.1062 22.25 26.2375 22.25 26.8C22.25 27.1 22.3813 27.2687 22.6813 27.3438C24.2 27.7 25.925 28 26.3938 28C27.0688 28 27.0875 27.7188 26.5813 25.3187C26.1875 23.4625 25.9813 23.1062 25.475 23.4437C25.1375 23.65 25.1 23.95 25.3063 25C25.4375 25.5812 24.875 25.0938 20.15 20.35C17.225 17.4437 14.7125 15.0625 14.5438 15.0625C14.375 15.0625 14.1875 15.1187 14.1313 15.1937Z" fill="#00B5D8"/>
</svg>
