<svg width="24" height="24" viewBox="0 0 24 24" fill="none" xmlns="http://www.w3.org/2000/svg">
<g clip-path="url(#clip0_103_398)">
<path d="M10.9875 0.956249C9.75 1.14375 8.475 1.9875 7.74375 3.075C6.975 4.21875 6.75 5.00625 6.75 6.69375C6.75 7.725 6.69375 8.0625 6.50625 8.0625C6.35625 8.0625 6.1125 8.2125 5.94375 8.4C5.68125 8.7 5.625 9.225 5.625 11.8687V15H3.3C1.2375 15 0.9375 15.0375 0.4875 15.3937L0 15.7687V19.05C0 22.0312 0.0375 22.35 0.35625 22.6687C0.825 23.1375 1.63125 23.2875 3.09375 23.2125C4.0875 23.1562 4.21875 23.1187 4.275 22.725C4.33125 22.3312 4.29375 22.3125 2.83125 22.3125C0.73125 22.3125 0.75 22.35 0.75 19.05C0.75 17.2312 0.825 16.3125 0.975 16.1625C1.29375 15.8437 22.7063 15.8437 23.025 16.1625C23.175 16.3125 23.25 17.2312 23.25 19.05C23.25 21.225 23.1938 21.7687 22.95 22.0125C22.6875 22.275 21.6188 22.3125 13.9688 22.3125C8.1375 22.3125 5.23125 22.3687 5.15625 22.5C5.08125 22.6125 5.1375 22.8187 5.25 22.9688C5.45625 23.2125 6.76875 23.25 13.9688 23.25C22.7063 23.25 23.4375 23.1937 23.8125 22.5C23.925 22.3125 24 20.7188 24 18.9562V15.7687L23.5125 15.3937C23.0625 15.0375 22.7625 15 20.7 15H18.375V13.2188C18.375 11.7562 18.3188 11.4 18.075 11.3062C17.5875 11.1187 17.4375 11.6062 17.4375 13.35V15H15.5813H13.7438L13.6313 14.475C13.575 14.175 13.575 13.4625 13.6313 12.8812C13.725 11.9437 13.6875 11.7937 13.2563 11.3625C12.8813 10.9875 12.5813 10.875 12 10.875C11.4188 10.875 11.1188 10.9875 10.7438 11.3625C10.3125 11.7937 10.275 11.9437 10.3688 12.8812C10.425 13.4625 10.425 14.175 10.3688 14.475L10.275 15H8.41875H6.5625V12V9H11.9813H17.4188L17.475 9.69375C17.5125 10.275 17.6063 10.425 17.9625 10.4625C18.3375 10.5187 18.375 10.4437 18.375 9.6C18.375 8.7 18 8.0625 17.4938 8.0625C17.3813 8.0625 17.2688 7.36875 17.2125 6.31875C17.1 3.80625 16.2375 2.30625 14.3813 1.425C13.2563 0.9 12.2813 0.768749 10.9875 0.956249ZM13.2 1.95C14.4375 2.325 15.2625 3.01875 15.825 4.1625C16.2188 4.96875 16.3125 5.4 16.3125 6.6V8.0625H15.675H15.0563L14.9625 6.5625C14.8688 4.89375 14.6063 4.35 13.5 3.6C12.2625 2.775 10.5188 3.16875 9.50625 4.5375C9.225 4.9125 9.1125 5.4375 9.0375 6.5625L8.94375 8.0625H8.325H7.6875V6.6C7.6875 4.2 8.7375 2.5875 10.725 1.96875C11.775 1.63125 12.1313 1.63125 13.2 1.95ZM13.35 4.66875C13.9125 5.175 13.9688 5.30625 14.025 6.6375L14.1 8.0625H12H9.9L9.975 6.6375C10.0312 5.30625 10.0875 5.175 10.65 4.66875C11.4938 3.91875 12.5063 3.91875 13.35 4.66875ZM12.5625 12C12.8625 12.3 12.9 12.4688 12.75 12.8438C12.6563 13.1062 12.6188 13.6875 12.6938 14.1562L12.8063 15H12H11.1938L11.3063 14.1562C11.3813 13.6875 11.3438 13.1062 11.25 12.8438C11.1 12.4688 11.1375 12.3 11.4375 12C11.6438 11.7937 11.9062 11.625 12 11.625C12.1125 11.625 12.3563 11.7937 12.5625 12Z" fill="#03045E"/>
<path d="M3.69375 17.175C3.61875 17.25 3.5625 17.6063 3.5625 17.9438C3.5625 18.5625 3.54375 18.5813 3.15 18.3C2.925 18.1313 2.5875 18 2.4 18C1.93125 18 1.96875 18.6938 2.4375 18.9375C2.64375 19.05 2.8125 19.2188 2.8125 19.3125C2.8125 19.4063 2.64375 19.5375 2.4375 19.5938C2.19375 19.6688 2.0625 19.875 2.0625 20.175C2.0625 20.7 2.25 20.7375 3 20.3438L3.5625 20.0438V20.7188C3.5625 21.2438 3.6375 21.375 3.9375 21.375C4.2375 21.375 4.3125 21.2438 4.3125 20.7V20.025L4.8 20.3438C5.68125 20.9063 6.24375 20.2125 5.4 19.5938L4.96875 19.2938L5.4 18.9938C5.625 18.8438 5.8125 18.5438 5.8125 18.3375C5.8125 17.9438 5.45625 17.925 4.65 18.2813C4.40625 18.375 4.33125 18.2813 4.275 17.7938C4.21875 17.1938 3.95625 16.9313 3.69375 17.175Z" fill="#00B5D8"/>
<path d="M8.94376 17.1749C8.86876 17.2499 8.81251 17.5499 8.81251 17.8499C8.81251 18.3749 8.56876 18.5437 8.34376 18.1874C8.19376 17.9249 7.55626 17.9437 7.38751 18.2249C7.31251 18.3374 7.48126 18.6374 7.80001 18.8999C8.10001 19.1624 8.25001 19.4062 8.13751 19.4437C7.59376 19.6312 7.25626 20.0249 7.36876 20.3437C7.50001 20.6624 7.72501 20.6624 8.47501 20.3437C8.71876 20.2499 8.79376 20.3437 8.85001 20.7562C8.88751 21.1312 9.01876 21.2999 9.33751 21.3374C9.69376 21.3937 9.75001 21.3187 9.75001 20.7187V20.0624L10.2188 20.3624C10.7438 20.6999 11.25 20.6062 11.25 20.1749C11.25 20.0062 11.025 19.7437 10.7625 19.5562L10.275 19.2562L10.7813 18.9937C11.7 18.5062 11.0813 17.8499 10.0875 18.2624C9.84376 18.3749 9.76876 18.2812 9.71251 17.7749C9.65626 17.1937 9.24376 16.8749 8.94376 17.1749Z" fill="#00B5D8"/>
<path d="M14.3813 17.1749C14.3063 17.2499 14.25 17.5687 14.25 17.8687C14.25 18.3187 14.1938 18.3937 13.9313 18.2812C12.9188 17.8499 12.2812 18.4874 13.2188 18.9937L13.725 19.2562L13.2375 19.5562C12.975 19.7437 12.75 20.0062 12.75 20.1749C12.75 20.6062 13.2563 20.6999 13.7812 20.3624L14.25 20.0624V20.7187C14.25 21.3187 14.3063 21.3937 14.6813 21.3374C14.9813 21.2999 15.1125 21.1312 15.15 20.7562C15.2063 20.3437 15.2812 20.2499 15.525 20.3437C16.275 20.6624 16.5 20.6624 16.6313 20.3437C16.7063 20.0999 16.5938 19.8937 16.2563 19.6499L15.75 19.2937L16.2563 18.8624C16.5375 18.6187 16.6875 18.3374 16.6125 18.2249C16.4438 17.9437 15.8063 17.9249 15.6562 18.1874C15.4313 18.5437 15.2063 18.3749 15.15 17.7749C15.0938 17.1937 14.6813 16.8749 14.3813 17.1749Z" fill="#00B5D8"/>
<path d="M19.8188 17.175C19.7438 17.25 19.6875 17.5687 19.6875 17.8687C19.6875 18.3187 19.6313 18.3937 19.3688 18.2812C18.5438 17.925 18.1875 17.9437 18.1875 18.3375C18.1875 18.5437 18.375 18.8438 18.6188 18.9937L19.0313 19.2937L18.6188 19.5937C17.7562 20.2125 18.3188 20.9062 19.2 20.3438L19.6875 20.025V20.7C19.6875 21.2437 19.7625 21.375 20.0625 21.375C20.3625 21.375 20.4375 21.2437 20.4375 20.7188V20.0437L21 20.3438C21.75 20.7375 21.9375 20.7 21.9375 20.175C21.9375 19.875 21.8063 19.6687 21.5625 19.5937C21.3563 19.5375 21.1875 19.4062 21.1875 19.3125C21.1875 19.2188 21.3563 19.05 21.5625 18.9375C22.0313 18.6937 22.0688 18 21.6 18C21.4125 18 21.0938 18.1312 20.8688 18.2812C20.475 18.5625 20.4563 18.5437 20.4 17.8687C20.3438 17.2125 20.0813 16.9125 19.8188 17.175Z" fill="#00B5D8"/>
</g>
<defs>
<clipPath id="clip0_103_398">
<rect width="24" height="24" fill="white"/>
</clipPath>
</defs>
</svg>
