<svg width="48" height="41" viewBox="0 0 48 41" fill="none" xmlns="http://www.w3.org/2000/svg">
<path fill-rule="evenodd" clip-rule="evenodd" d="M20.518 0.294885C26.6801 0.40879 33.0089 0.163812 37.6481 4.1811C43.5298 9.27429 49.3406 16.286 47.7265 23.8557C46.0977 31.4946 37.7205 35.1144 30.4222 38.0699C23.8237 40.7421 16.3241 42.5622 10.12 39.0853C4.24754 35.7942 3.07144 28.5017 1.68238 21.9636C0.33702 15.6312 -1.69674 8.43721 2.5666 3.53262C6.74094 -1.26957 14.12 0.17662 20.518 0.294885Z" fill="#DDF9FF"/>
<path d="M17.3593 9.71875C15.1421 10.6469 13.1827 11.5063 13.0108 11.6094C12.7015 11.7984 12.6843 12.0562 12.7702 15.7C12.839 19.1547 12.8905 19.7391 13.2343 20.8047C14.4718 24.6719 17.1015 27.8 20.5733 29.5531C21.0718 29.7937 21.7077 30 21.9999 30C22.2921 30 22.928 29.7937 23.4265 29.5531C26.8983 27.8 29.528 24.6719 30.7655 20.8047C31.1093 19.7391 31.1608 19.1547 31.2296 15.7172C31.2983 12.6234 31.264 11.8156 31.0749 11.6609C30.5593 11.2484 22.4296 8 21.9311 8.01719C21.639 8.01719 19.5765 8.79062 17.3593 9.71875ZM26.0218 11.575L29.614 13.0531L29.5108 15.7C29.339 19.55 28.7546 21.5437 27.0702 23.8984C25.9186 25.5141 23.564 27.4906 22.1718 28.0234C21.8108 28.1437 19.9202 27.0094 18.7171 25.9094C16.8608 24.225 15.4858 21.9219 14.8843 19.4984C14.7296 18.8625 14.5577 17.1953 14.489 15.7L14.3858 13.0531L18.1499 11.4891C20.2124 10.6297 22.0343 9.95938 22.1718 9.99375C22.3093 10.0453 24.0452 10.75 26.0218 11.575Z" fill="#03045E"/>
<path d="M22.9452 17.4532L21.0546 19.3438L20.1093 18.3985C19.1296 17.4188 18.3905 17.1782 17.9093 17.6594C17.4108 18.1579 17.6858 18.725 19.1296 20.1688C21.1061 22.1454 20.9858 22.1625 23.9421 19.2063C25.7296 17.4188 26.2968 16.7485 26.2968 16.4047C26.2968 15.8375 26.0046 15.5625 25.3515 15.5625C24.9218 15.5625 24.5265 15.8719 22.9452 17.4532Z" fill="#00B5D8"/>
</svg>
