<svg width="48" height="41" viewBox="0 0 48 41" fill="none" xmlns="http://www.w3.org/2000/svg">
<path fill-rule="evenodd" clip-rule="evenodd" d="M20.518 0.294885C26.6801 0.40879 33.0089 0.163812 37.6481 4.1811C43.5298 9.27429 49.3406 16.286 47.7265 23.8557C46.0977 31.4946 37.7205 35.1144 30.4222 38.0699C23.8237 40.7421 16.3241 42.5622 10.12 39.0853C4.24754 35.7942 3.07144 28.5017 1.68238 21.9636C0.33702 15.6312 -1.69674 8.43721 2.5666 3.53262C6.74094 -1.26957 14.12 0.17662 20.518 0.294885Z" fill="#DDF9FF"/>
<g clip-path="url(#clip0_103_277)">
<path d="M11.0375 11.2564L11.0937 15.5314L15.1062 15.5877C17.9 15.6252 19.1937 15.5689 19.3625 15.4189C19.55 15.2689 19.625 14.7252 19.625 13.5439V11.8752H23.9375H28.2312L28.8687 12.4377C30.0312 13.4502 30.2187 14.7814 29.3562 15.8877C28.7187 16.6939 28.2687 16.8439 25.9062 16.9377L23.6562 17.0314V17.5002C23.6562 17.9689 23.6562 17.9689 25.7187 18.0252C28.025 18.1002 28.8875 17.9127 29.7687 17.1814C31.4187 15.7939 31.4375 13.1689 29.825 11.6502C28.925 10.8252 28.4937 10.7502 23.9375 10.7502H19.6437L19.5875 8.91269L19.5312 7.09394L15.2562 7.03769L11 7.00019L11.0375 11.2564ZM13.25 9.32519C13.25 11.0877 13.5125 11.3877 14.5625 10.8252L15.2562 10.4314L15.9125 10.8064C16.9625 11.4252 17.1875 11.2002 17.1875 9.43769V7.93769H17.8437H18.5V11.2189V14.5002H15.2187H11.9375V11.2189V7.93769H12.5937H13.25V9.32519ZM16.0625 8.63144V9.34394H15.2187H14.375V8.63144V7.93769H15.2187H16.0625V8.63144Z" fill="#00B5D8"/>
<path d="M14.5436 17.3501C13.1936 18.2501 12.9311 19.9376 13.9811 21.1001C14.6561 21.8501 15.4436 21.9813 19.1186 22.0001C21.9873 22.0001 22.2873 22.0376 22.6248 22.3751C23.1311 22.8813 23.1123 23.7063 22.5686 24.2126C22.1561 24.6063 21.9686 24.6251 18.5373 24.6251C14.5998 24.6251 13.9061 24.7563 13.3436 25.6376C12.5936 26.7626 12.8373 28.2626 13.9248 29.1063C14.4123 29.4813 14.6186 29.5001 20.6186 29.5001H26.7873L27.4248 30.0626C28.3061 30.8126 29.3373 31.0563 31.4373 30.9626C33.3123 30.8876 34.6248 30.4188 34.8873 29.7813C35.2436 28.8063 34.9248 28.0751 33.8748 27.5313L33.3311 27.2501L33.9873 26.1813C34.9998 24.5126 35.2436 23.1438 34.7936 21.7938C34.2123 20.1063 32.8249 19.1126 30.9499 19.0938C30.0124 19.0938 29.6561 19.1876 28.8873 19.6563C26.7498 20.9876 26.3936 23.5751 27.9686 26.2188L28.6061 27.2501L28.1936 27.4563C27.9686 27.5688 27.5561 27.8688 27.2936 28.1313L26.8061 28.5813L20.8623 28.5251L14.8998 28.4688L14.4498 27.9438C13.9061 27.3063 13.8873 26.8751 14.3561 26.2938C14.7123 25.8438 14.7873 25.8438 18.7811 25.7501L22.8498 25.6563L23.4873 24.9626C24.0123 24.3813 24.1248 24.1188 24.1248 23.4063C24.1248 22.9376 23.9936 22.3001 23.8436 22.0001C23.3186 21.0063 22.7936 20.8751 19.1748 20.8751C17.3748 20.8751 15.6873 20.8001 15.4248 20.6876C15.1623 20.5938 14.8248 20.2938 14.6373 20.0313C14.3748 19.6376 14.3748 19.4688 14.5436 19.0188C14.8811 18.2126 15.4623 18.0626 18.0498 18.0626H20.3936L20.3373 17.5376L20.2811 17.0313L17.7311 16.9751C15.3498 16.9376 15.1623 16.9563 14.5436 17.3501ZM32.1123 20.4813C33.0873 20.9126 33.7061 21.7938 33.8373 22.8626C33.9498 23.8938 33.2186 25.4688 31.8686 27.1188L30.9873 28.2063L30.4623 27.5876C29.4499 26.3876 28.4373 24.7751 28.2311 24.0063C27.8373 22.5438 28.4936 21.0813 29.8061 20.5001C30.7811 20.0501 31.1373 20.0501 32.1123 20.4813ZM30.9686 29.3126C31.2686 29.3126 31.6811 29.1063 31.9998 28.7876C32.5061 28.2626 32.5436 28.2626 33.1998 28.5251C34.0811 28.8813 34.0436 29.2001 33.0873 29.5751C31.5873 30.1938 28.0623 29.8001 28.0623 29.0313C28.0623 28.9001 28.3811 28.6563 28.7561 28.5063C29.4499 28.2438 29.4686 28.2438 29.9561 28.7688C30.2748 29.1063 30.6498 29.3126 30.9686 29.3126Z" fill="#03045E"/>
<path d="M29.769 21.5689C28.7565 22.4127 28.9815 24.1002 30.1815 24.7002C30.819 25.0002 30.969 25.0189 31.5877 24.7752C32.544 24.4189 33.0502 23.4064 32.7502 22.4689C32.6377 22.1127 32.3565 21.6814 32.1315 21.5314C31.5877 21.1377 30.2565 21.1752 29.769 21.5689ZM31.6252 22.7502C31.9065 23.2752 31.2127 23.9689 30.6877 23.6877C30.3315 23.5002 30.1815 22.7689 30.444 22.5064C30.7065 22.2439 31.4377 22.3939 31.6252 22.7502Z" fill="#03045E"/>
<path d="M21.5748 17.2187C21.406 17.65 21.631 18.0625 22.0623 18.0625C22.531 18.0625 22.756 17.5937 22.4373 17.2187C22.1373 16.8625 21.706 16.8625 21.5748 17.2187Z" fill="#00B5D8"/>
</g>
<defs>
<clipPath id="clip0_103_277">
<rect width="24" height="24" fill="white" transform="translate(11 7)"/>
</clipPath>
</defs>
</svg>
